<svg viewBox="0 0 512 512" xmlns="http://www.w3.org/2000/svg"><linearGradient id="a" gradientTransform="matrix(1 0 0 -1 0 -11082)" gradientUnits="userSpaceOnUse" x1="0" x2="512" y1="-11338" y2="-11338"><stop offset="0" stop-color="#31d8ff"/><stop offset="1" stop-color="#ff80ff"/></linearGradient><path d="M512 256c0 141.387-114.613 256-256 256S0 397.387 0 256 114.613 0 256 0s256 114.613 256 256zm0 0" fill="url(#a)"/><path d="M190.84 441c-3.903 0-7.8-1.512-10.738-4.527-5.786-5.93-5.665-15.426.265-21.211L343.68 256 180.367 96.738c-5.93-5.785-6.05-15.281-.265-21.21 5.785-5.93 15.28-6.051 21.21-.266l174.325 170A15 15 0 01380.16 256c0 4.047-1.633 7.918-4.523 10.738l-174.325 170A14.956 14.956 0 01190.84 441zm0 0" fill="#fff"/></svg>