<svg xmlns="http://www.w3.org/2000/svg" viewBox="0 0 490.923 490.923"><path d="M245.461 0C109.897 0 0 109.897 0 245.461s109.897 245.461 245.461 245.461 245.461-109.897 245.461-245.461v-.021C490.77 109.942 380.959.141 245.461 0z" fill="#2196f3"/><g fill="#fafafa"><path d="M267.029 362.773a10.667 10.667 0 01-7.552-18.219l99.051-99.008-99.285-99.221c-4.092-4.237-3.975-10.99.262-15.083 4.134-3.992 10.687-3.992 14.82 0L381.12 238.016c4.164 4.165 4.164 10.917 0 15.083l-106.667 106.56a10.663 10.663 0 01-7.424 3.114z"/><path d="M138.923 362.645a10.667 10.667 0 01-7.552-18.219l99.157-98.987-99.285-99.115c-4.092-4.237-3.975-10.99.262-15.083 4.134-3.992 10.687-3.992 14.82 0L253.12 238.016c4.171 4.16 4.179 10.914.019 15.085l-.019.019-106.667 106.411a10.663 10.663 0 01-7.53 3.114z"/></g></svg>